<svg width="32" height="32" viewBox="0 0 32 32" fill="none" xmlns="http://www.w3.org/2000/svg">
<path d="M16.6256 4.03034C18.4439 5.84862 18.4439 8.79663 16.6256 10.6149C14.8073 12.4332 11.8593 12.4332 10.041 10.6149C8.22274 8.79663 8.22274 5.84862 10.041 4.03034C11.8593 2.21206 14.8073 2.21206 16.6256 4.03034" stroke="white" stroke-width="1.5" stroke-linecap="round" stroke-linejoin="round"/>
<path d="M19.1507 17.0612C17.4187 16.3692 15.3867 15.9879 13.3334 15.9879C7.93602 15.9879 2.66669 18.6106 2.66669 22.6439V23.9772C2.66669 24.7132 3.26402 25.3106 4.00002 25.3106H16.5507" stroke="white" stroke-width="1.5" stroke-linecap="round" stroke-linejoin="round"/>
<path d="M22.6667 29.3333C18.9853 29.3333 16 26.3493 16 22.6667C16 19.0613 19.0667 15.996 22.672 16C26.352 16.0027 29.3333 18.9867 29.3333 22.6667C29.3333 26.348 26.3493 29.3333 22.6667 29.3333" stroke="white" stroke-width="1.5" stroke-linecap="round" stroke-linejoin="round"/>
<path d="M22.6667 20V25.3333" stroke="white" stroke-width="1.5" stroke-linecap="round" stroke-linejoin="round"/>
<path d="M25.3333 22.6667H20" stroke="white" stroke-width="1.5" stroke-linecap="round" stroke-linejoin="round"/>
</svg>
