<svg width="50" height="31" viewBox="0 0 50 31" fill="none" xmlns="http://www.w3.org/2000/svg">
<path fill-rule="evenodd" clip-rule="evenodd" d="M14.3087 11.491C14.3087 12.094 14.3739 12.5829 14.488 12.9414C14.6183 13.2999 14.7813 13.6911 15.0095 14.1148C15.0909 14.2452 15.1235 14.3755 15.1235 14.4896C15.1235 14.6526 15.0258 14.8156 14.8139 14.9785L13.7872 15.663C13.6405 15.7608 13.4938 15.8097 13.3635 15.8097C13.2005 15.8097 13.0375 15.7282 12.8746 15.5815C12.6464 15.3371 12.4508 15.0763 12.2879 14.8156C12.1249 14.5385 11.9619 14.2289 11.7827 13.854C10.5115 15.3533 8.91442 16.103 6.99139 16.103C5.62245 16.103 4.53056 15.7119 3.73201 14.9296C2.93346 14.1474 2.52604 13.1044 2.52604 11.8006C2.52604 10.4154 3.01495 9.29091 4.00906 8.44347C5.00317 7.59603 6.32321 7.17231 8.00179 7.17231C8.55589 7.17231 9.12628 7.2212 9.72926 7.30269C10.3322 7.38417 10.9515 7.51455 11.6034 7.66122V6.47155C11.6034 5.23298 11.3427 4.36925 10.8375 3.86404C10.316 3.35884 9.43592 3.11439 8.18106 3.11439C7.61067 3.11439 7.02398 3.17958 6.421 3.32625C5.81801 3.47292 5.23132 3.65219 4.66093 3.88034C4.40018 3.99442 4.20462 4.05961 4.09054 4.0922C3.97646 4.12479 3.89498 4.14109 3.82979 4.14109C3.60163 4.14109 3.48756 3.97812 3.48756 3.63589V2.83734C3.48756 2.57659 3.52015 2.38103 3.60163 2.26695C3.68312 2.15287 3.82979 2.03879 4.05795 1.92472C4.62834 1.63137 5.31281 1.38692 6.11135 1.19136C6.9099 0.979496 7.75734 0.881715 8.65367 0.881715C10.593 0.881715 12.0108 1.32173 12.9235 2.20176C13.8198 3.08179 14.2761 4.41814 14.2761 6.2108V11.491H14.3087ZM7.69215 13.9681C8.22995 13.9681 8.78405 13.8703 9.37073 13.6748C9.95742 13.4792 10.4789 13.1207 10.9189 12.6318C11.1797 12.3221 11.3753 11.9799 11.473 11.5888C11.5708 11.1976 11.636 10.725 11.636 10.1709V9.48647C11.1634 9.37239 10.6582 9.27461 10.1367 9.20942C9.61519 9.14424 9.10998 9.11164 8.60478 9.11164C7.51289 9.11164 6.71434 9.3235 6.17654 9.76352C5.63875 10.2035 5.378 10.8228 5.378 11.6377C5.378 12.4036 5.57356 12.974 5.98098 13.3651C6.37211 13.7726 6.9425 13.9681 7.69215 13.9681ZM20.7786 15.7282C20.4852 15.7282 20.2896 15.6793 20.1593 15.5652C20.0289 15.4674 19.9148 15.2393 19.817 14.9296L15.9873 2.33214C15.8895 2.0062 15.8406 1.79434 15.8406 1.68026C15.8406 1.41951 15.971 1.27284 16.2317 1.27284H17.8288C18.1385 1.27284 18.3503 1.32173 18.4644 1.43581C18.5948 1.53359 18.6926 1.76175 18.7903 2.07139L21.5282 12.8599L24.0705 2.07139C24.152 1.74545 24.2498 1.53359 24.3802 1.43581C24.5105 1.33803 24.7387 1.27284 25.032 1.27284H26.3358C26.6454 1.27284 26.8573 1.32173 26.9877 1.43581C27.118 1.53359 27.2321 1.76175 27.2973 2.07139L29.8722 12.9903L32.6916 2.07139C32.7894 1.74545 32.9034 1.53359 33.0175 1.43581C33.1479 1.33803 33.3598 1.27284 33.6531 1.27284H35.1687C35.4295 1.27284 35.5761 1.40322 35.5761 1.68026C35.5761 1.74987 35.5642 1.81947 35.5506 1.89924L35.5435 1.94101C35.5272 2.03879 35.4946 2.16917 35.4295 2.34843L31.5019 14.9459C31.4041 15.2719 31.29 15.4837 31.1597 15.5815C31.0293 15.6793 30.8174 15.7445 30.5404 15.7445H29.1389C28.8292 15.7445 28.6174 15.6956 28.487 15.5815C28.3566 15.4674 28.2425 15.2556 28.1773 14.9296L25.6513 4.41814L23.1416 14.9133C23.0601 15.2393 22.9623 15.4511 22.832 15.5652C22.7016 15.6793 22.4734 15.7282 22.1801 15.7282H20.7786ZM41.7201 16.1682C40.8726 16.1682 40.0252 16.0704 39.2103 15.8749C38.3955 15.6793 37.7599 15.4674 37.3362 15.223C37.0754 15.0763 36.8962 14.9133 36.831 14.7667C36.7658 14.62 36.7332 14.457 36.7332 14.3103V13.4792C36.7332 13.137 36.8636 12.974 37.108 12.974C37.2058 12.974 37.3036 12.9903 37.4014 13.0229C37.4645 13.0439 37.548 13.0786 37.6432 13.118L37.6432 13.118C37.6954 13.1397 37.7511 13.1628 37.8088 13.1859C38.3629 13.4303 38.9659 13.6259 39.6015 13.7563C40.2533 13.8866 40.8889 13.9518 41.5408 13.9518C42.5675 13.9518 43.366 13.7726 43.9201 13.414C44.4742 13.0555 44.7676 12.534 44.7676 11.8658C44.7676 11.4095 44.6209 11.0347 44.3276 10.725C44.0342 10.4154 43.4801 10.1383 42.6816 9.8776L40.3185 9.14424C39.1289 8.76941 38.2488 8.21531 37.711 7.48195C37.1732 6.76489 36.8962 5.96634 36.8962 5.11891C36.8962 4.43444 37.0429 3.83145 37.3362 3.30995C37.6295 2.78845 38.0207 2.33214 38.5096 1.97361C38.9985 1.59878 39.5526 1.32173 40.2044 1.12617C40.8563 0.930606 41.5408 0.849121 42.2579 0.849121C42.6164 0.849121 42.9912 0.865418 43.3497 0.914309C43.7246 0.963199 44.0668 1.02839 44.409 1.09357C44.735 1.17506 45.0446 1.25654 45.338 1.35432C45.6313 1.45211 45.8595 1.54989 46.0224 1.64767C46.2506 1.77804 46.4136 1.90842 46.5113 2.05509C46.6091 2.18547 46.658 2.36473 46.658 2.59289V3.35884C46.658 3.70108 46.5276 3.88034 46.2832 3.88034C46.1528 3.88034 45.9409 3.81515 45.6639 3.68478C44.735 3.26106 43.692 3.0492 42.5349 3.0492C41.606 3.0492 40.8726 3.19587 40.3674 3.50551C39.8622 3.81515 39.6015 4.28776 39.6015 4.95594C39.6015 5.41225 39.7644 5.80337 40.0904 6.11302C40.4163 6.42266 41.0193 6.7323 41.883 7.00934L44.1972 7.7427C45.3706 8.11753 46.218 8.63903 46.7232 9.30721C47.2284 9.97538 47.4729 10.7413 47.4729 11.5888C47.4729 12.2895 47.3262 12.9251 47.0491 13.4792C46.7558 14.0333 46.3647 14.5222 45.8595 14.9133C45.3543 15.3208 44.7513 15.6141 44.0505 15.826C43.3172 16.0541 42.5512 16.1682 41.7201 16.1682ZM44.8002 24.0885C39.4385 28.0486 31.6486 30.1509 24.9506 30.1509C15.5635 30.1509 7.10546 26.6797 0.717077 20.9106C0.211874 20.4543 0.668187 19.835 1.27117 20.1935C8.18105 24.2025 16.7043 26.6308 25.5209 26.6308C31.4693 26.6308 38.0044 25.3922 44.0179 22.8499C44.9142 22.4425 45.6802 23.4366 44.8002 24.0885ZM40.7585 21.3343C42.5023 21.1225 46.3484 20.6662 47.0328 21.5462C47.7173 22.4099 46.2669 26.0441 45.615 27.6575C45.4194 28.1464 45.8432 28.342 46.2832 27.9672C49.1514 25.5552 49.9011 20.5195 49.3144 19.7861C48.7277 19.0691 43.692 18.4498 40.6281 20.601C40.1555 20.9432 40.237 21.3995 40.7585 21.3343Z" fill="white"/>
</svg>
