<svg width="32" height="32" viewBox="0 0 32 32" fill="none" xmlns="http://www.w3.org/2000/svg">
<path d="M17.3335 7.99996L17.3333 8.66663" stroke="white" stroke-width="1.5" stroke-linecap="round" stroke-linejoin="round"/>
<path d="M17.3335 15.3333L17.3333 16" stroke="white" stroke-width="1.5" stroke-linecap="round" stroke-linejoin="round"/>
<path d="M20.7975 10.0001L20.2201 10.3333" stroke="white" stroke-width="1.5" stroke-linecap="round" stroke-linejoin="round"/>
<path d="M14.4467 13.6667L13.8693 13.9999" stroke="white" stroke-width="1.5" stroke-linecap="round" stroke-linejoin="round"/>
<path d="M13.8693 10.0001L14.4467 10.3333" stroke="white" stroke-width="1.5" stroke-linecap="round" stroke-linejoin="round"/>
<path d="M20.2201 13.6667L20.7975 13.9999" stroke="white" stroke-width="1.5" stroke-linecap="round" stroke-linejoin="round"/>
<path d="M8 12C8 7.21357 11.8802 3.33337 16.6667 3.33337" stroke="white" stroke-width="1.5" stroke-linecap="round" stroke-linejoin="round"/>
<path d="M16 19.9999V21.1089C16 22.2568 15.2655 23.2758 14.1766 23.6388L11.5099 24.5277C10.6968 24.7987 9.80282 24.6623 9.10744 24.1611C8.41205 23.6599 8 22.855 8 21.9978V19.6392" stroke="white" stroke-width="1.5" stroke-linecap="round" stroke-linejoin="round"/>
<path d="M13.6151 23.8212L12.585 26.9117C12.4494 27.3183 12.5176 27.7653 12.7682 28.113C13.0188 28.4607 13.4213 28.6667 13.8499 28.6667H23.4834C23.912 28.6667 24.3145 28.4607 24.5651 28.113C24.8157 27.7653 24.8839 27.3183 24.7483 26.9117L24.3936 25.8474C23.2975 22.5592 23.693 18.9561 25.4763 15.984V15.984C26.2552 14.6858 26.6667 13.2003 26.6667 11.6864V11.6864C26.6667 9.47103 25.7866 7.34641 24.2201 5.77992C22.6536 4.21342 20.529 3.33337 18.3137 3.33337H16.6667" stroke="white" stroke-width="1.5" stroke-linecap="round" stroke-linejoin="round"/>
<path d="M7.99998 19.6392L6.07225 18.6755C5.73013 18.5054 5.47762 18.1965 5.37901 17.8273C5.28041 17.4582 5.34522 17.0645 5.55694 16.7465L7.99998 13.082V12" stroke="white" stroke-width="1.5" stroke-linecap="round" stroke-linejoin="round"/>
</svg>
