<svg width="20" height="20" viewBox="0 0 20 20" fill="none" xmlns="http://www.w3.org/2000/svg">
<path d="M5.85848 0.0679847C4.79447 0.118185 4.06786 0.287986 3.43265 0.537586C2.77524 0.793787 2.21804 1.13759 1.66363 1.69399C1.10923 2.25039 0.767824 2.80799 0.513421 3.4664C0.267219 4.103 0.100417 4.8302 0.0534168 5.89481C0.00641629 6.95941 -0.00398383 7.30161 0.00121623 10.0172C0.00641628 12.7328 0.0184164 13.0732 0.0700169 14.14C0.120817 15.2038 0.290019 15.9302 0.539622 16.5656C0.796224 17.223 1.13963 17.78 1.69623 18.3347C2.25284 18.8893 2.81004 19.2299 3.47005 19.4847C4.10606 19.7305 4.83347 19.8981 5.89788 19.9447C6.96229 19.9913 7.30489 20.0021 10.0197 19.9969C12.7345 19.9917 13.0763 19.9797 14.143 19.9291C15.2096 19.8785 15.9322 19.7081 16.5678 19.4597C17.2252 19.2025 17.7826 18.8597 18.3368 18.3028C18.891 17.746 19.2322 17.188 19.4864 16.5292C19.7328 15.8932 19.9002 15.1658 19.9464 14.1022C19.993 13.0348 20.004 12.694 19.9988 9.97882C19.9936 7.26361 19.9814 6.92321 19.9308 5.85681C19.8802 4.7904 19.7108 4.0662 19.4614 3.4304C19.2044 2.77299 18.8614 2.21639 18.305 1.66139C17.7486 1.10639 17.1902 0.765387 16.5316 0.511786C15.8952 0.265585 15.1682 0.0977848 14.1038 0.0517847C13.0393 0.00578451 12.6967 -0.00601553 9.98092 -0.000815509C7.26509 0.00438451 6.92509 0.0159846 5.85848 0.0679847ZM5.97528 18.1456C5.00027 18.1032 4.47086 17.9412 4.11806 17.8056C3.65085 17.6256 3.31805 17.408 2.96645 17.0598C2.61484 16.7116 2.39884 16.3776 2.21644 15.9114C2.07944 15.5586 1.91444 15.0298 1.86884 14.0548C1.81923 13.001 1.80883 12.6846 1.80303 10.0148C1.79723 7.34501 1.80743 7.02901 1.85363 5.97481C1.89524 5.0006 2.05824 4.4706 2.19364 4.118C2.37364 3.6502 2.59044 3.318 2.93945 2.96659C3.28845 2.61519 3.62145 2.39879 4.08806 2.21639C4.44046 2.07879 4.96927 1.91519 5.94388 1.86879C6.99849 1.81879 7.31449 1.80879 9.98392 1.80299C12.6533 1.79719 12.9701 1.80719 14.0252 1.85359C14.9994 1.89599 15.5296 2.05739 15.8818 2.19359C16.3492 2.37359 16.6818 2.58979 17.0332 2.9394C17.3846 3.289 17.6012 3.6208 17.7836 4.0884C17.9214 4.4398 18.085 4.9684 18.131 5.94361C18.1812 6.99821 18.1926 7.31441 18.1974 9.98362C18.2022 12.6528 18.1928 12.9698 18.1466 14.0236C18.104 14.9986 17.9424 15.5282 17.8066 15.8814C17.6266 16.3484 17.4096 16.6814 17.0604 17.0326C16.7112 17.3838 16.3786 17.6002 15.9118 17.7826C15.5598 17.92 15.0304 18.084 14.0566 18.1304C13.0019 18.18 12.6859 18.1904 10.0155 18.1962C7.34509 18.202 7.03009 18.1912 5.97548 18.1456M14.1276 4.6534C14.128 4.89076 14.1987 5.12266 14.3309 5.31979C14.4631 5.51692 14.6508 5.67041 14.8703 5.76086C15.0897 5.85131 15.3311 5.87465 15.5638 5.82792C15.7965 5.7812 16.0101 5.66652 16.1777 5.49837C16.3452 5.33023 16.4591 5.11618 16.505 4.8833C16.5508 4.65042 16.5266 4.40917 16.4354 4.19005C16.3441 3.97094 16.1899 3.78381 15.9923 3.65233C15.7947 3.52085 15.5625 3.45092 15.3252 3.4514C15.007 3.45203 14.7021 3.57902 14.4775 3.80442C14.2529 4.02983 14.127 4.33521 14.1276 4.6534ZM4.86547 10.008C4.87107 12.844 7.17429 15.1378 10.0097 15.1324C12.8451 15.127 15.1406 12.824 15.1352 9.98802C15.1298 7.15201 12.8259 4.8576 9.99012 4.8632C7.15429 4.8688 4.86007 7.17241 4.86547 10.008ZM6.66668 10.0044C6.66538 9.34514 6.85961 8.70027 7.2248 8.15137C7.59 7.60247 8.10976 7.17419 8.71837 6.92069C9.32697 6.66718 9.99708 6.59984 10.644 6.72718C11.2908 6.85452 11.8854 7.17082 12.3525 7.63609C12.8196 8.10135 13.1383 8.69467 13.2682 9.34104C13.3981 9.9874 13.3334 10.6578 13.0823 11.2674C12.8312 11.877 12.405 12.3984 11.8576 12.7658C11.3101 13.1331 10.666 13.3299 10.0067 13.3312C9.56895 13.3322 9.13529 13.2468 8.7305 13.0801C8.32572 12.9134 7.95773 12.6686 7.64757 12.3597C7.33741 12.0508 7.09115 11.6837 6.92284 11.2796C6.75454 10.8755 6.6675 10.4422 6.66668 10.0044Z" fill="white"/>
</svg>
