<svg width="162" height="29" viewBox="0 0 162 29" fill="none" xmlns="http://www.w3.org/2000/svg">
<path fill-rule="evenodd" clip-rule="evenodd" d="M26.1633 6.95352C26.0024 6.43896 25.6165 6.02087 25.1341 5.76358L15.3252 1.06815C15.0679 0.939509 14.7784 0.907349 14.5212 0.907349C14.2639 0.907349 13.9744 0.907349 13.7171 0.97167L3.90819 5.69926C3.42578 5.92439 3.07202 6.34247 2.94337 6.8892L0.531336 17.47C0.434854 18.0167 0.563496 18.5635 0.885101 19.0137L7.67097 27.4076C8.05689 27.7935 8.60362 28.0508 9.15035 28.083H19.9563C20.5352 28.1473 21.0819 27.89 21.4357 27.4076L28.2215 19.0137C28.5431 18.5635 28.6718 18.0167 28.6074 17.47L26.1633 6.95352ZM24.6517 17.0519C24.6195 17.0519 24.5874 17.0519 24.5874 17.0198C24.5874 16.9876 24.523 16.9876 24.4587 16.9876C24.3301 16.9555 24.2014 16.9555 24.0728 16.9555C24.0085 16.9555 23.9442 16.9555 23.8798 16.9233H23.8477C23.4939 16.8911 23.108 16.8268 22.7542 16.7303C22.6577 16.6982 22.5613 16.6017 22.5291 16.5052L22.2718 16.4409C22.4005 15.5082 22.3361 14.5434 22.1432 13.6108C21.918 12.6781 21.5321 11.7776 21.0176 10.9736L21.2105 10.7806V10.7485C21.2105 10.652 21.2427 10.5233 21.307 10.459C21.5964 10.2017 21.8859 10.0088 22.2075 9.81581L22.4005 9.71933C22.4648 9.68717 22.5211 9.65501 22.5773 9.62285C22.6336 9.59069 22.6899 9.55853 22.7542 9.52637C22.7703 9.51029 22.7864 9.50225 22.8025 9.49421C22.8185 9.48617 22.8346 9.47813 22.8507 9.46205C22.8706 9.44217 22.8659 9.43458 22.8594 9.42409C22.8554 9.4176 22.8507 9.41001 22.8507 9.39773C23.1401 9.1726 23.2045 8.78668 22.9793 8.49723C22.8829 8.36859 22.6899 8.27211 22.5291 8.27211C22.3683 8.27211 22.2075 8.33643 22.0788 8.43291L22.0467 8.46507C22.0145 8.49723 21.9824 8.52939 21.9502 8.52939L21.9502 8.5294C21.8537 8.62588 21.7572 8.72236 21.6929 8.81884C21.6705 8.86368 21.6324 8.8929 21.6006 8.91737C21.5867 8.92801 21.574 8.93774 21.5643 8.94748C21.3392 9.20476 21.0497 9.46205 20.7603 9.65501C20.6959 9.68717 20.6316 9.71933 20.5673 9.71933C20.5351 9.71933 20.4708 9.71933 20.4387 9.68717H20.4065L20.1492 9.84797C20.0206 9.71936 19.884 9.59075 19.7473 9.46214L19.7472 9.46204C19.6105 9.3334 19.4738 9.20476 19.3452 9.07612C18.1553 8.14347 16.6759 7.56458 15.1643 7.40377L15.1322 7.14649V7.17865C15.0357 7.11433 15.0035 7.01785 14.9714 6.92137C14.9714 6.5676 14.9714 6.21383 15.0357 5.82791V5.79575C15.0357 5.76359 15.0437 5.73144 15.0518 5.69928L15.0518 5.69927C15.0598 5.66711 15.0679 5.63495 15.0679 5.60278C15.0839 5.53846 15.092 5.47414 15.1 5.40983C15.1081 5.3455 15.1161 5.28118 15.1322 5.21686V5.0239C15.1643 4.70229 14.9071 4.38068 14.5855 4.34852C14.3925 4.31636 14.1995 4.41284 14.0387 4.57365C13.9101 4.70229 13.8458 4.86309 13.8458 5.0239V5.1847C13.8458 5.31334 13.8779 5.44198 13.9101 5.57062C13.9422 5.63495 13.9422 5.69927 13.9422 5.76359V5.79575C14.0066 6.14951 14.0066 6.50328 14.0066 6.88921C13.9744 6.98569 13.9422 7.08217 13.8458 7.14649V7.21081L13.8136 7.4681C13.5109 7.49561 13.2082 7.54668 12.8854 7.60114C12.8309 7.61033 12.7759 7.61961 12.7201 7.6289C11.2086 7.9505 9.8257 8.75452 8.76441 9.88013L8.57145 9.75149H8.53928C8.52596 9.75149 8.51264 9.75701 8.49704 9.76347C8.47496 9.77262 8.44832 9.78365 8.41064 9.78365C8.34632 9.78365 8.282 9.75149 8.21768 9.71933C7.92824 9.49421 7.63879 9.23692 7.41367 8.97964C7.39124 8.93479 7.35319 8.90558 7.3213 8.8811L7.32129 8.88109C7.30744 8.87047 7.29476 8.86073 7.28503 8.851C7.23678 8.80276 7.19658 8.75452 7.15638 8.70628C7.11618 8.65803 7.07598 8.60979 7.02774 8.56155C7.01166 8.54547 6.99558 8.53743 6.9795 8.52939C6.96342 8.52135 6.94734 8.51331 6.93126 8.49723L6.8991 8.46507C6.77046 8.36859 6.60966 8.30427 6.44885 8.30427C6.25589 8.30427 6.09509 8.36859 5.99861 8.52939C5.80564 8.81884 5.86996 9.20476 6.12725 9.42989C6.15941 9.42989 6.15941 9.46205 6.15941 9.46205C6.15941 9.46205 6.22373 9.52637 6.25589 9.52637C6.35237 9.59069 6.48101 9.65501 6.60965 9.71933L6.60966 9.71933L6.80262 9.81581C7.12422 10.0088 7.44583 10.2017 7.70311 10.459C7.76183 10.5177 7.82054 10.6301 7.80587 10.7226L7.79959 10.7163V10.7485C7.8024 10.7401 7.80446 10.7314 7.80587 10.7226L7.99256 10.9093C7.97648 10.9414 7.9604 10.9656 7.94432 10.9897L7.94431 10.9897C7.92823 11.0138 7.91215 11.0379 7.89608 11.0701C6.8991 12.6459 6.48101 14.5113 6.77046 16.3444L6.51317 16.4087C6.51317 16.4409 6.48101 16.4409 6.48101 16.4409C6.44885 16.5374 6.35237 16.6017 6.25589 16.666C5.90212 16.7625 5.54836 16.8268 5.16243 16.859C5.09811 16.859 5.03379 16.859 4.96947 16.8911C4.90515 16.8911 4.84083 16.8992 4.77651 16.9072L4.77648 16.9072C4.71217 16.9153 4.64786 16.9233 4.58354 16.9233C4.57022 16.9233 4.5569 16.9288 4.5413 16.9353C4.51922 16.9444 4.49258 16.9555 4.4549 16.9555C4.44124 16.9555 4.43338 16.9555 4.42639 16.9579C4.41694 16.9613 4.40908 16.9691 4.39059 16.9876L4.39058 16.9876C4.03682 17.0519 3.81169 17.3735 3.87601 17.7273C3.94033 18.0167 4.22978 18.2097 4.51922 18.1776C4.58354 18.1776 4.61571 18.1775 4.68003 18.1454C4.69611 18.1454 4.70415 18.1454 4.70817 18.1414C4.71219 18.1374 4.71219 18.1293 4.71219 18.1132C4.71219 18.0908 4.75909 18.0997 4.79839 18.1071C4.81546 18.1103 4.83109 18.1132 4.84083 18.1132C4.92158 18.093 5.00233 18.0602 5.07513 18.0306L5.07518 18.0305C5.11833 18.013 5.15869 17.9966 5.19459 17.9846C5.25891 17.9524 5.32324 17.9203 5.38756 17.9203H5.41972C5.77348 17.7916 6.09509 17.6951 6.48101 17.6308H6.51317C6.60966 17.6308 6.70614 17.663 6.77046 17.7273C6.80262 17.7273 6.80262 17.7595 6.80262 17.7595L7.09206 17.7273C7.57447 19.2067 8.47496 20.5253 9.72922 21.4901C10.0187 21.7152 10.276 21.9082 10.5976 22.069L10.4368 22.2941C10.4368 22.3263 10.4689 22.3263 10.4689 22.3263C10.5332 22.4227 10.5332 22.5514 10.5011 22.6479C10.3724 22.9695 10.1795 23.2911 9.98651 23.5805V23.6127C9.95435 23.677 9.92219 23.7092 9.85787 23.7735C9.82174 23.8096 9.78563 23.866 9.74381 23.9313C9.71116 23.9823 9.67504 24.0387 9.63274 24.0951C9.61666 24.1112 9.60862 24.1272 9.60058 24.1433C9.59254 24.1594 9.5845 24.1755 9.56842 24.1916C9.56842 24.1916 9.56842 24.2237 9.53626 24.2237C9.37546 24.5453 9.5041 24.9313 9.79354 25.0921C9.85787 25.1242 9.95435 25.1564 10.0187 25.1564C10.276 25.1564 10.5011 24.9956 10.6297 24.7705C10.6297 24.7705 10.6297 24.7383 10.6619 24.7383C10.6619 24.7061 10.694 24.674 10.7262 24.6418C10.7423 24.5775 10.7664 24.5212 10.7905 24.4649C10.8146 24.4087 10.8388 24.3524 10.8548 24.288L10.9192 24.0951C11.0156 23.7413 11.1764 23.4197 11.3372 23.0981C11.4016 23.0016 11.498 22.9373 11.5945 22.9051C11.6106 22.9051 11.6187 22.9051 11.6227 22.9011C11.6267 22.8971 11.6267 22.8891 11.6267 22.873L11.7553 22.6157C12.6558 22.9695 13.5885 23.1303 14.5533 23.1303C15.1322 23.1303 15.7111 23.066 16.29 22.9051C16.5537 22.8572 16.8175 22.7735 17.0679 22.694L17.0679 22.694C17.1534 22.6669 17.2373 22.6403 17.3191 22.6157L17.4477 22.8408C17.4799 22.8408 17.4799 22.8408 17.4799 22.873C17.5764 22.9051 17.6729 22.9695 17.7372 23.066C17.898 23.3876 18.0588 23.7092 18.1553 24.0629V24.0951L18.2196 24.288C18.2518 24.4167 18.2839 24.5453 18.3482 24.6418C18.3643 24.6579 18.3724 24.674 18.3804 24.6901C18.3884 24.7061 18.3965 24.7222 18.4126 24.7383C18.4126 24.7383 18.4126 24.7705 18.4447 24.7705C18.5734 24.9956 18.7985 25.1564 19.0558 25.1564C19.1321 25.1564 19.1883 25.1362 19.2563 25.1119L19.2564 25.1119C19.2743 25.1055 19.293 25.0988 19.313 25.0921C19.4417 25.0277 19.5703 24.8991 19.6025 24.7383C19.6347 24.5775 19.6347 24.4167 19.5703 24.2559C19.5703 24.2237 19.5382 24.2237 19.5382 24.2237C19.5382 24.1916 19.506 24.1594 19.4739 24.1272C19.4095 23.9986 19.3452 23.9021 19.2487 23.8056C19.2166 23.7413 19.1844 23.7092 19.1201 23.6449L19.1201 23.6448V23.5805C18.895 23.2911 18.7342 22.9695 18.6055 22.6479C18.5734 22.5514 18.5734 22.4227 18.6377 22.3263C18.6377 22.2941 18.6698 22.2941 18.6698 22.2941L18.5734 22.0368C20.2135 21.0398 21.4678 19.4961 22.0467 17.663L22.304 17.6951C22.3361 17.6951 22.3361 17.663 22.3361 17.663C22.4005 17.5987 22.4969 17.5665 22.5934 17.5665H22.6256C22.9793 17.6308 23.3331 17.7273 23.6547 17.8559H23.6869C23.7512 17.8881 23.8155 17.9203 23.8798 17.9203C23.9131 17.9369 23.9442 17.9535 23.9742 17.9696C24.0605 18.0157 24.1382 18.0572 24.2336 18.0811C24.2469 18.0811 24.2602 18.0866 24.2759 18.0931C24.2979 18.1022 24.3246 18.1132 24.3622 18.1132C24.3944 18.1132 24.3944 18.1132 24.4266 18.1454C24.4909 18.1775 24.523 18.1776 24.5874 18.1776C24.8768 18.1776 25.1341 17.9846 25.2306 17.7273C25.1984 17.3735 24.9411 17.1163 24.6517 17.0519ZM15.3573 16.055L14.489 16.473L13.6206 16.055L13.3955 15.1223L14.0066 14.3504H14.9714L15.5824 15.1223L15.3573 16.055ZM20.5995 13.9645C20.7603 14.6399 20.7924 15.3153 20.7281 15.9906L17.6729 15.1223C17.3834 15.058 17.2226 14.7685 17.2869 14.4791C17.3191 14.3826 17.3513 14.3183 17.4156 14.254L19.8276 12.0671C20.1814 12.6459 20.4387 13.2892 20.5995 13.9645ZM18.8628 10.8771L16.2256 12.7424C16.0005 12.8711 15.6789 12.8389 15.5181 12.6138C15.4538 12.5495 15.4216 12.4851 15.4216 12.3887L15.2287 9.14044C16.6437 9.30125 17.898 9.9123 18.8628 10.8771ZM13.0418 9.23692L13.685 9.10828L13.5242 12.3243C13.5242 12.6138 13.2669 12.8389 12.9774 12.8389C12.9011 12.8389 12.8449 12.8188 12.7769 12.7944C12.759 12.788 12.7403 12.7813 12.7201 12.7746L10.0508 10.8771C10.887 10.0731 11.9161 9.49421 13.0418 9.23692ZM9.11817 12.0671L11.498 14.1896C11.7232 14.3826 11.7553 14.7042 11.5624 14.9293C11.498 15.0258 11.4337 15.058 11.3051 15.0901L8.18552 15.9906C8.08904 14.6399 8.41064 13.257 9.11817 12.0671ZM8.57145 17.5022L11.7553 16.9555C12.0126 16.9555 12.2699 17.1163 12.3021 17.3735C12.3342 17.47 12.3342 17.5987 12.2699 17.6951L11.0478 20.6539C9.92218 19.9142 9.02169 18.7886 8.57145 17.5022ZM15.8719 21.4901C15.4216 21.5866 14.9714 21.6509 14.489 21.6509C13.8136 21.6509 13.1061 21.5222 12.4629 21.3293L14.0387 18.467C14.1995 18.274 14.4568 18.2097 14.6819 18.3384C14.7784 18.4027 14.8427 18.467 14.9392 18.5635L14.9392 18.5635L16.4829 21.3614C16.29 21.3936 16.097 21.4258 15.8719 21.4901ZM19.7955 18.6921C19.313 19.464 18.6377 20.1393 17.8658 20.6217L16.6116 17.5987C16.5472 17.3414 16.6759 17.0841 16.901 16.9876L16.901 16.9876C16.9975 16.9554 17.094 16.9233 17.1905 16.9233L20.4065 17.47C20.2457 17.9203 20.0527 18.3384 19.7955 18.6921ZM157.668 20.8147C157.249 20.9755 156.767 21.0399 156.317 21.0077C155.893 21.0077 155.482 20.9797 155.068 20.9515C154.854 20.9369 154.638 20.9222 154.419 20.9112C153.808 20.7826 153.197 20.5896 152.618 20.3645L152.039 23.1946C152.522 23.3554 153.004 23.5162 153.519 23.6449C154.419 23.87 155.32 23.9665 156.252 23.9343C157.925 23.9343 159.211 23.6127 160.112 23.0017C161.044 22.3906 161.559 21.3293 161.495 20.2358C161.495 19.7856 161.43 19.3354 161.302 18.8851C161.173 18.467 160.98 18.1133 160.691 17.8238C160.369 17.4379 159.983 17.1484 159.533 16.9233C158.954 16.6017 158.311 16.3123 157.668 16.0871C157.282 15.9585 156.96 15.8299 156.735 15.7012C156.67 15.6642 156.608 15.6298 156.549 15.5973C156.404 15.517 156.28 15.4483 156.188 15.3796C156.059 15.2831 155.963 15.1866 155.899 15.058L155.899 15.0579C155.867 14.9293 155.834 14.8007 155.834 14.6721C155.834 14.061 156.381 13.7716 157.475 13.7716C157.989 13.7716 158.536 13.8037 159.05 13.9324C159.184 13.9706 159.315 14.0059 159.444 14.0409C159.752 14.1239 160.052 14.2052 160.369 14.3183L160.98 11.5847C160.433 11.3917 159.887 11.2631 159.34 11.1666C158.632 11.0058 157.893 10.9415 157.185 10.9415C155.706 10.9415 154.548 11.2631 153.68 11.9384C152.843 12.5816 152.361 13.6108 152.393 14.6721C152.393 15.1866 152.458 15.7012 152.65 16.1836C152.811 16.6017 153.036 16.9555 153.358 17.2771C153.712 17.5987 154.066 17.856 154.484 18.0489C154.934 18.2741 155.416 18.4992 155.963 18.6921C156.51 18.8529 157.056 19.1102 157.539 19.3997C157.828 19.4962 158.021 19.7856 158.053 20.1072C158.086 20.3967 157.925 20.6861 157.668 20.8147ZM139.079 14.6399C138.757 15.5404 138.564 16.5052 138.596 17.47C138.596 18.3062 138.725 19.1746 138.95 20.0429C139.207 20.7826 139.593 21.4901 140.14 22.069C140.719 22.6479 141.394 23.0981 142.166 23.3876C143.099 23.7413 144.064 23.9022 145.061 23.87C145.511 23.87 145.961 23.8378 146.379 23.8057C146.829 23.7414 147.215 23.6771 147.601 23.6128L147.601 23.6127C147.955 23.5805 148.309 23.4841 148.663 23.3876C148.74 23.3587 148.817 23.3327 148.893 23.3069C149.071 23.2468 149.245 23.1882 149.402 23.0981L148.92 20.268C148.437 20.4931 147.923 20.6539 147.408 20.7504C146.797 20.8469 146.154 20.9112 145.543 20.9112C144.707 20.9434 143.871 20.7183 143.163 20.268C142.584 19.8821 142.23 19.2389 142.166 18.5635H150.013C150.013 18.4739 150.02 18.3844 150.028 18.2884C150.036 18.1776 150.045 18.0582 150.045 17.9203C150.078 17.6631 150.078 17.438 150.078 17.2451V17.2449C150.078 15.1866 149.563 13.6108 148.566 12.5495C147.569 11.4882 146.186 10.9415 144.45 10.9415C143.71 10.9415 142.97 11.0701 142.263 11.3595C141.555 11.6168 140.944 12.0349 140.397 12.5816C139.818 13.1927 139.368 13.8681 139.079 14.6399ZM146.572 15.2831C146.669 15.5726 146.733 15.862 146.733 16.1515H142.166C142.198 15.862 142.263 15.5726 142.359 15.2831C142.456 14.9937 142.616 14.7364 142.809 14.5113C143.002 14.2862 143.26 14.1254 143.517 13.9967C143.839 13.8359 144.16 13.7716 144.514 13.7716C144.868 13.7716 145.189 13.8359 145.511 13.9967C145.768 14.1254 145.993 14.3183 146.186 14.5434C146.347 14.7686 146.508 14.9937 146.572 15.2831ZM132.647 7.62892L129.173 8.17565V18.4992C129.141 19.2067 129.205 19.9464 129.366 20.6539C129.527 21.265 129.784 21.8439 130.17 22.3263C130.556 22.7765 131.071 23.1625 131.65 23.3876C132.389 23.677 133.193 23.8057 133.997 23.7735C134.641 23.7735 135.284 23.7092 135.895 23.5805C136.377 23.4519 136.86 23.3233 137.31 23.1303L136.827 20.4288C136.474 20.5575 136.12 20.6539 135.734 20.7183C135.38 20.7826 134.994 20.8147 134.608 20.8147C133.804 20.8147 133.29 20.5896 133.033 20.1715C132.743 19.657 132.614 19.0459 132.647 18.4349V14.1253H136.827V11.2309H132.647V7.62892ZM115.602 14.6399C115.28 15.5404 115.087 16.5052 115.119 17.47C115.087 18.3062 115.216 19.1746 115.473 20.0429C115.73 20.7826 116.116 21.4901 116.663 22.069C117.242 22.6479 117.917 23.0981 118.689 23.3876C119.622 23.7413 120.586 23.9022 121.583 23.87C122.034 23.87 122.484 23.8378 122.902 23.8057C123.352 23.7414 123.738 23.6771 124.124 23.6128L124.124 23.6127C124.478 23.5805 124.832 23.4841 125.185 23.3876C125.263 23.3587 125.34 23.3327 125.416 23.3069C125.594 23.2468 125.767 23.1882 125.925 23.0981L125.443 20.268C124.928 20.4931 124.414 20.6539 123.899 20.7504C123.288 20.8469 122.645 20.9112 122.034 20.9112C121.198 20.9434 120.361 20.7183 119.654 20.268C119.075 19.8821 118.721 19.2389 118.657 18.5635H126.536C126.536 18.3705 126.536 18.1776 126.568 17.9203C126.6 17.663 126.6 17.4379 126.6 17.2449C126.6 15.1866 126.086 13.6108 125.089 12.5495C124.092 11.4882 122.709 10.9415 120.972 10.9415C120.233 10.9415 119.493 11.0701 118.785 11.3595C118.078 11.6168 117.467 12.0349 116.92 12.5816C116.341 13.1927 115.891 13.8681 115.602 14.6399ZM123.095 15.2831C123.191 15.5726 123.256 15.862 123.256 16.1515H118.721C118.753 15.862 118.818 15.5726 118.914 15.2831C119.011 14.9937 119.171 14.7364 119.364 14.5113C119.557 14.2862 119.782 14.1254 120.04 13.9967C120.361 13.8359 120.683 13.7716 121.037 13.7716C121.39 13.7716 121.712 13.8359 122.034 13.9967C122.291 14.1254 122.516 14.3183 122.709 14.5434C122.87 14.7686 123.031 14.9937 123.095 15.2831ZM104.217 11.1666C103.445 11.2952 102.673 11.456 101.933 11.649V23.4519H105.407V13.9967C105.632 13.9645 105.857 13.9324 106.146 13.9324C106.436 13.9002 106.693 13.9002 106.95 13.9002C107.754 13.9002 108.301 14.1575 108.591 14.6078C108.88 15.0902 109.041 15.862 109.041 16.9876V23.4519H112.482V16.5374C112.482 15.7655 112.418 14.9937 112.225 14.254C112.064 13.6108 111.774 12.9997 111.356 12.4852C110.938 11.9706 110.359 11.5847 109.716 11.3595C108.88 11.0701 108.012 10.9093 107.143 10.9415C106.179 10.9415 105.182 11.0058 104.217 11.1666ZM99.1412 14.2424C99.262 14.2698 99.3775 14.296 99.4892 14.3183L100.068 11.4239C99.8429 11.3274 99.6178 11.2631 99.3927 11.2309C99.1033 11.1666 98.846 11.1344 98.5887 11.1023C98.2992 11.0379 98.042 11.0058 97.7847 11.0058C97.6721 11.0058 97.5595 10.9977 97.447 10.9897C97.3344 10.9817 97.2219 10.9736 97.1093 10.9736C96.1766 10.9415 95.2118 11.0379 94.2792 11.2631C93.5395 11.4239 92.7998 11.6168 92.0923 11.8741V23.5162H95.5656V14.1575C95.7907 14.0932 96.0158 14.061 96.241 14.0289C96.2702 14.0256 96.2991 14.0224 96.3277 14.0192C96.5824 13.9905 96.8137 13.9645 97.045 13.9645C97.4952 13.9645 97.9455 13.9967 98.3957 14.0932C98.6686 14.1352 98.9142 14.1909 99.1412 14.2424ZM78.3919 14.6399C78.0703 15.5404 77.8773 16.5052 77.9095 17.47C77.9095 18.3384 78.0381 19.1746 78.2311 20.0429C78.4884 20.7826 78.8743 21.4901 79.421 22.069C79.9999 22.6479 80.6753 23.0981 81.4471 23.3876C82.3798 23.7413 83.3446 23.9022 84.3416 23.87C84.7918 23.87 85.2421 23.8378 85.6602 23.8057C86.1102 23.7414 86.496 23.6771 86.8818 23.6128L86.8823 23.6127C87.236 23.5805 87.5898 23.4841 87.9436 23.3876C88.0206 23.3587 88.0977 23.3327 88.174 23.3069C88.3521 23.2468 88.5256 23.1882 88.6833 23.0981L88.2008 20.268C87.7184 20.461 87.2039 20.6218 86.6893 20.7183C86.0782 20.8147 85.435 20.8791 84.824 20.8791C83.9878 20.9112 83.1516 20.6861 82.4441 20.2358C81.8652 19.8499 81.5115 19.2067 81.4471 18.5313H89.3265C89.3265 18.3384 89.3265 18.1454 89.3586 17.8881C89.3908 17.6309 89.3908 17.4059 89.3908 17.213V17.2128C89.3908 15.1866 88.8762 13.6108 87.8792 12.5495C86.8823 11.4882 85.4994 10.9415 83.7627 10.9415C83.023 10.9415 82.2833 11.0701 81.5758 11.3595C80.8682 11.6168 80.2572 12.0349 79.7105 12.5816C79.1316 13.1927 78.6813 13.8681 78.3919 14.6399ZM85.9174 15.2831C86.0139 15.5726 86.0782 15.862 86.0782 16.1515H81.5115C81.5436 15.862 81.6079 15.5726 81.7044 15.2831C81.8009 14.9937 81.9617 14.7364 82.1547 14.5113C82.3476 14.2862 82.6049 14.1254 82.8622 13.9967C83.1838 13.8359 83.5054 13.7716 83.8592 13.7716C84.2129 13.7716 84.5345 13.8359 84.8562 13.9967C85.1134 14.1254 85.3386 14.3183 85.5315 14.5434C85.6923 14.7686 85.8531 14.9937 85.9174 15.2831ZM69.805 13.9324C71.4452 13.9324 72.2814 15.0258 72.2814 17.2771C72.3136 18.2097 72.0563 19.1102 71.5739 19.8821C71.0593 20.5575 70.2553 20.9112 69.4191 20.8469C69.0975 20.8469 68.8081 20.8469 68.5508 20.8147C68.2935 20.7826 68.0684 20.7504 67.9076 20.7183V14.4148C68.1648 14.254 68.4543 14.1254 68.7437 14.061C69.0975 13.9645 69.4513 13.9324 69.805 13.9324ZM75.3688 20.075C75.6904 19.2067 75.819 18.3062 75.819 17.4057C75.819 16.5052 75.7226 15.6047 75.5296 14.8007C75.3366 14.061 74.9829 13.3857 74.5005 12.7746C74.0502 12.2279 73.4713 11.7776 72.8281 11.4882C72.0884 11.1344 71.3166 11.0058 70.5126 11.0058C70.0623 11.0058 69.6121 11.0379 69.1618 11.1344C68.7437 11.2309 68.3256 11.3595 67.9397 11.5203V5.40985L64.4664 5.95658V23.1625C64.7558 23.2911 65.1096 23.3876 65.5277 23.4519C65.9457 23.5484 66.3638 23.6127 66.7819 23.677L66.7819 23.677C67.0071 23.6931 67.2322 23.7172 67.4573 23.7413C67.6824 23.7655 67.9076 23.7896 68.1327 23.8057C68.5829 23.8378 69.0332 23.87 69.4513 23.87C70.3839 23.87 71.2844 23.7413 72.1527 23.4197C72.8924 23.1303 73.5678 22.68 74.1467 22.1012C74.6934 21.5223 75.1115 20.8469 75.3688 20.075ZM58.8705 23.5162C59.6423 23.4197 60.4142 23.2589 61.1539 23.066V11.2309H57.6805V20.6539C57.5215 20.6994 57.3626 20.7127 57.1809 20.728C57.1054 20.7343 57.0259 20.741 56.9408 20.7504C56.6514 20.7826 56.3941 20.7826 56.1368 20.7826C55.3328 20.7826 54.7861 20.5253 54.4966 20.0429C54.2072 19.5605 54.0464 18.7565 54.0464 17.6308V11.2309H50.5731V18.0168C50.5731 18.7886 50.6374 19.5926 50.8303 20.3323C50.9911 21.0077 51.2806 21.6188 51.6987 22.1655C52.1489 22.68 52.6956 23.066 53.3389 23.3233C54.175 23.6127 55.0434 23.7735 55.9439 23.7413C56.9087 23.7413 57.9056 23.677 58.8705 23.5162ZM41.2394 15.2831C41.125 15.4118 41.0107 15.5404 40.8927 15.6691V5.40985L37.4194 5.95658V23.5805H40.8927V18.2097C41.3108 18.5313 41.6968 18.9173 42.0505 19.3354C42.4686 19.7856 42.8545 20.268 43.2083 20.7504C43.4104 21.0738 43.6252 21.3845 43.8368 21.6904C43.9618 21.8713 44.0858 22.0506 44.2053 22.2298C44.2878 22.3536 44.3682 22.4731 44.4465 22.5895C44.6733 22.9268 44.8823 23.2376 45.0736 23.5484H49.0615C48.8042 23.0338 48.4826 22.4549 48.0967 21.8439C47.7108 21.2328 47.2605 20.5896 46.8103 19.9786C46.3279 19.3354 45.8456 18.7566 45.3632 18.1777L45.3631 18.1776C44.9128 17.6308 44.4304 17.1484 43.9158 16.666C44.8485 15.7655 45.6847 14.865 46.4887 13.9967C46.8204 13.6235 47.1581 13.2384 47.5017 12.8466C47.9576 12.3267 48.4239 11.7949 48.9007 11.2631H44.7842C44.7364 11.3177 44.6857 11.3752 44.6328 11.4352C44.4362 11.6583 44.2082 11.917 43.9801 12.1957C43.8139 12.3989 43.637 12.6022 43.4495 12.8176C43.3106 12.9772 43.1659 13.1434 43.0153 13.3213C42.6616 13.7073 42.3078 14.0932 41.954 14.5113C41.6968 14.7686 41.4681 15.0258 41.2394 15.2831Z" fill="white"/>
</svg>
