<svg width="20" height="20" viewBox="0 0 20 20" fill="none" xmlns="http://www.w3.org/2000/svg">
<path d="M17.0409 17.0394H14.0776V12.3985C14.0776 11.2918 14.0578 9.86716 12.5363 9.86716C10.9929 9.86716 10.7567 11.0729 10.7567 12.3179V17.0391H7.79336V7.49546H10.6382V8.7997H10.678C10.9627 8.3129 11.3741 7.91243 11.8684 7.64096C12.3627 7.36948 12.9214 7.23715 13.4849 7.25807C16.4884 7.25807 17.0422 9.23372 17.0422 11.8039L17.0409 17.0394ZM4.44969 6.19091C4.10957 6.19097 3.77706 6.09017 3.49422 5.90126C3.21139 5.71234 2.99094 5.44379 2.86073 5.12957C2.73051 4.81535 2.69638 4.46958 2.76268 4.13597C2.82897 3.80236 2.99271 3.4959 3.23317 3.25535C3.47363 3.0148 3.78002 2.85095 4.11359 2.78453C4.44716 2.71812 4.79293 2.75211 5.10719 2.88222C5.42144 3.01233 5.69006 3.2327 5.87907 3.51548C6.06808 3.79825 6.16901 4.13073 6.16907 4.47086C6.16911 4.6967 6.12466 4.92034 6.03827 5.129C5.95189 5.33767 5.82527 5.52727 5.66561 5.68699C5.50595 5.84671 5.31638 5.97342 5.10775 6.05989C4.89913 6.14635 4.67552 6.19087 4.44969 6.19091ZM5.93137 17.0394H2.96491V7.49546H5.93137V17.0394ZM18.5183 -0.000590493H1.47583C1.08901 -0.00495586 0.716265 0.144433 0.439533 0.414749C0.162802 0.685065 0.00472088 1.05419 0 1.44102V18.5548C0.00455931 18.9418 0.162547 19.3112 0.43927 19.5818C0.715992 19.8524 1.08882 20.002 1.47583 19.9979H18.5183C18.9061 20.0028 19.28 19.8535 19.5578 19.583C19.8356 19.3124 19.9946 18.9426 20 18.5548V1.43978C19.9945 1.05219 19.8353 0.682643 19.5575 0.412334C19.2797 0.142024 18.9059 -0.00693765 18.5183 -0.00182577" fill="white"/>
</svg>
