<svg width="146" height="36" viewBox="0 0 146 36" fill="none" xmlns="http://www.w3.org/2000/svg">
<g clip-path="url(#clip0_154_2490)">
<g clip-path="url(#clip1_154_2490)">
<path d="M48.7319 27.9388C47.3457 26.5634 46.6544 24.648 46.6544 22.1889H51.2162C51.2162 23.3518 51.5114 24.2628 52.1055 24.9216C52.696 25.5805 53.5205 25.9118 54.5682 25.9118H58.2911C59.274 25.9118 60.0733 25.7065 60.6889 25.2925C61.3046 24.8784 61.6107 24.3276 61.6107 23.6327V22.4913C61.6107 21.3968 60.8042 20.7127 59.1948 20.4463L53.0272 19.4058C51.0146 19.0709 49.4916 18.43 48.4511 17.4759C47.4105 16.5254 46.8921 15.3121 46.8921 13.8395V11.9637C46.8921 10.7791 47.2089 9.73499 47.8462 8.82768C48.4835 7.92397 49.3872 7.22549 50.5609 6.73223C51.7347 6.23897 53.092 5.99414 54.633 5.99414H58.4207C59.8716 5.99414 61.157 6.29658 62.2767 6.89785C63.3929 7.50272 64.2606 8.34523 64.8763 9.42896C65.4919 10.5127 65.798 11.7692 65.798 13.2022H61.2398C61.2398 12.2625 60.9842 11.51 60.4693 10.9375C59.9545 10.3687 59.274 10.0806 58.4243 10.0806H54.6366C53.6969 10.0806 52.9444 10.2823 52.3719 10.6855C51.8031 11.0888 51.5186 11.6252 51.5186 12.2949V13.1986C51.5186 14.3183 52.2891 15.0096 53.8337 15.2761L59.9689 16.349C62.0031 16.7054 63.5549 17.3391 64.6278 18.2428C65.7008 19.1465 66.2372 20.3167 66.2372 21.746V23.9603C66.2372 25.1449 65.906 26.1962 65.2471 27.1107C64.5882 28.0288 63.6665 28.7381 62.482 29.2386C61.2974 29.7426 59.9221 29.991 58.3595 29.991H54.5034C52.0443 29.991 50.1217 29.3034 48.7355 27.928L48.7319 27.9388Z" fill="white"/>
<path d="M72.3292 29.1634C71.8143 28.7818 71.4578 28.1013 71.2562 27.1184L67.0977 6.26465H71.7927L74.6766 22.9275H74.745L79.6056 7.5032H81.2834C81.8415 7.5032 82.3276 7.64722 82.7416 7.93885C83.1557 8.23049 83.4725 8.75615 83.6957 9.51584L87.7858 22.8951H87.8542L90.7382 6.26465H95.4332L91.2422 27.1184C91.0622 28.0113 90.7346 28.6738 90.2521 29.095C89.7697 29.5199 89.118 29.7323 88.2899 29.7323H86.3457L81.3482 13.6383H81.2798L76.1852 29.7323H74.241C73.4813 29.7323 72.844 29.5415 72.3292 29.1634Z" fill="white"/>
<path d="M98.4503 28.861C97.8454 28.2813 97.5466 27.5216 97.5466 26.5819V6.26465H115.452V10.2863H102.173V15.7194H114.443V19.7447H102.173V25.7142H115.452V29.7359H100.801C99.8401 29.7359 99.0588 29.4443 98.4539 28.8646L98.4503 28.861Z" fill="white"/>
<path d="M0.756091 17.0909C9.59876 16.7057 16.6988 9.6056 17.0841 0.762927C17.1021 0.352478 16.778 0.00683594 16.364 0.00683594H8.64105C3.87047 0.00683594 0 3.8773 0 8.64788V16.3708C0 16.7813 0.345642 17.1089 0.756091 17.0909Z" fill="#00FFC7"/>
<path d="M17.0841 35.234C16.6988 26.3913 9.59876 19.2912 0.756091 18.906C0.345642 18.888 0 19.2156 0 19.6261V27.349C0 32.1196 3.87047 35.99 8.64105 35.99H16.364C16.7744 35.99 17.1021 35.6444 17.0841 35.234Z" fill="#00FFC7"/>
<path d="M18.8987 0.762927C19.2839 9.6056 26.384 16.7057 35.2267 17.0909C35.6371 17.1089 35.9828 16.7813 35.9828 16.3708V8.64788C35.9828 3.8773 32.1123 0.00683594 27.3417 0.00683594H19.6188C19.2083 0.00683594 18.8807 0.352478 18.8987 0.762927Z" fill="#00FFC7"/>
<path d="M35.2267 18.906C26.384 19.2912 19.2839 26.3913 18.8987 35.234C18.8807 35.6444 19.2083 35.99 19.6188 35.99H27.3417C32.1123 35.99 35.9828 32.1196 35.9828 27.349V19.6261C35.9828 19.2156 35.6371 18.888 35.2267 18.906Z" fill="#00FFC7"/>
<path d="M123.556 10.2827V7.16476H124.341V6.26465H121.734V7.16476H122.53V10.2827H123.556Z" fill="white"/>
<path d="M129 10.2827V6.26465H127.675L126.887 8.91097H126.876L126.076 6.26465H124.755V10.2827H125.702L125.67 7.23677L126.537 10.2827H127.218L128.075 7.26197L128.085 7.27277L128.053 10.2827H129Z" fill="white"/>
</g>
</g>
<defs>
<clipPath id="clip0_154_2490">
<rect width="145.5" height="36" fill="white" transform="translate(0 -0.00195312)"/>
</clipPath>
<clipPath id="clip1_154_2490">
<rect width="129" height="35.9828" fill="white" transform="translate(0 0.00683594)"/>
</clipPath>
</defs>
</svg>
