<svg width="81" height="20" viewBox="0 0 81 20" fill="none" xmlns="http://www.w3.org/2000/svg">
<g clip-path="url(#clip0_247_1195)">
<path d="M27.0733 15.5227C26.3032 14.7586 25.9192 13.6944 25.9192 12.3283H28.4535C28.4535 12.9744 28.6175 13.4804 28.9476 13.8465C29.2756 14.2125 29.7337 14.3965 30.3157 14.3965H32.384C32.93 14.3965 33.3741 14.2825 33.7161 14.0525C34.0582 13.8225 34.2282 13.5164 34.2282 13.1304V12.4963C34.2282 11.8882 33.7801 11.5082 32.886 11.3602L29.4596 10.7821C28.3415 10.5961 27.4954 10.24 26.9173 9.70997C26.3392 9.1819 26.0512 8.50782 26.0512 7.68972V6.64759C26.0512 5.98951 26.2272 5.40944 26.5813 4.90538C26.9353 4.40332 27.4374 4.01528 28.0895 3.74124C28.7415 3.46721 29.4956 3.33119 30.3517 3.33119H32.456C33.2621 3.33119 33.9762 3.49921 34.5982 3.83325C35.2183 4.16929 35.7004 4.63735 36.0424 5.23942C36.3845 5.8415 36.5545 6.53958 36.5545 7.33568H34.0222C34.0222 6.81361 33.8802 6.39556 33.5941 6.07752C33.3081 5.76149 32.93 5.60147 32.458 5.60147H30.3537C29.8317 5.60147 29.4136 5.71348 29.0956 5.93751C28.7795 6.16154 28.6215 6.45957 28.6215 6.83162V7.33368C28.6215 7.95575 29.0496 8.3398 29.9077 8.48782L33.3161 9.08389C34.4462 9.28191 35.3083 9.63396 35.9044 10.136C36.5005 10.6381 36.7985 11.2882 36.7985 12.0823V13.3124C36.7985 13.9705 36.6145 14.5546 36.2484 15.0626C35.8824 15.5727 35.3703 15.9667 34.7123 16.2448C34.0542 16.5248 33.2901 16.6628 32.422 16.6628H30.2797C28.9136 16.6628 27.8454 16.2808 27.0753 15.5167L27.0733 15.5227Z" fill="#080D0F"/>
<path d="M40.183 16.2028C39.8969 15.9907 39.6989 15.6127 39.5869 15.0666L37.2766 3.48122H39.8849L41.4871 12.7383H41.5251L44.2255 4.1693H45.1576C45.4676 4.1693 45.7376 4.24931 45.9677 4.41133C46.1977 4.57335 46.3737 4.86538 46.4977 5.28744L48.77 12.7203H48.808L50.4102 3.48122H53.0185L50.6902 15.0666C50.5902 15.5627 50.4082 15.9307 50.1402 16.1648C49.8721 16.4008 49.5101 16.5188 49.05 16.5188H47.9699L45.1936 7.57771H45.1556L42.3252 16.5188H41.2451C40.823 16.5188 40.469 16.4128 40.183 16.2028Z" fill="#080D0F"/>
<path d="M54.6947 16.0347C54.3586 15.7127 54.1926 15.2906 54.1926 14.7686V3.48122H64.1398V5.71549H56.7629V8.73385H63.5798V10.9701H56.7629V14.2865H64.1398V16.5208H56.0008C55.4668 16.5208 55.0327 16.3588 54.6967 16.0367L54.6947 16.0347Z" fill="#080D0F"/>
<path d="M0.420051 9.49594C5.33265 9.28192 9.27712 5.33744 9.49115 0.424842C9.50115 0.196815 9.32113 0.00479126 9.0911 0.00479126H4.80058C2.15026 0.00479126 0 2.15505 0 4.80537V9.09589C0 9.32392 0.192023 9.50594 0.420051 9.49594Z" fill="#00FFC7"/>
<path d="M9.49115 19.5752C9.27712 14.6626 5.33264 10.7181 0.420051 10.5041C0.192023 10.4941 0 10.6761 0 10.9041V15.1946C0 17.8449 2.15026 19.9952 4.80058 19.9952H9.0911C9.31913 19.9952 9.50115 19.8032 9.49115 19.5752Z" fill="#00FFC7"/>
<path d="M10.4992 0.424842C10.7132 5.33744 14.6577 9.28192 19.5703 9.49594C19.7983 9.50594 19.9903 9.32392 19.9903 9.09589V4.80537C19.9903 2.15505 17.8401 0.00479126 15.1897 0.00479126H10.8992C10.6712 0.00479126 10.4892 0.196815 10.4992 0.424842Z" fill="#00FFC7"/>
<path d="M19.5703 10.5041C14.6577 10.7181 10.7132 14.6626 10.4992 19.5752C10.4892 19.8032 10.6712 19.9952 10.8992 19.9952H15.1897C17.8401 19.9952 19.9903 17.8449 19.9903 15.1946V10.9041C19.9903 10.6761 19.7983 10.4941 19.5703 10.5041Z" fill="#00FFC7"/>
<path d="M68.6423 5.71349V3.98128H69.0783V3.48122H67.6301V3.98128H68.0722V5.71349H68.6423Z" fill="#080D0F"/>
<path d="M71.6666 5.71349V3.48122H70.9305L70.4925 4.95139H70.4865L70.0424 3.48122H69.3083V5.71349H69.8344L69.8164 4.02128L70.2985 5.71349H70.6765L71.1526 4.03528L71.1586 4.04128L71.1406 5.71349H71.6666Z" fill="#080D0F"/>
</g>
<defs>
<clipPath id="clip0_247_1195">
<rect width="71.6667" height="19.9904" fill="white" transform="translate(0 0.00479126)"/>
</clipPath>
</defs>
</svg>
