<svg width="58" height="35" viewBox="0 0 58 35" fill="none" xmlns="http://www.w3.org/2000/svg">
<path d="M14.0171 9.23371H24.8217V10.0925H15.0075V16.5558H24.2365V17.4146H15.0075V24.5108H24.9343V25.3695H14.0171V9.23371ZM25.7897 9.23371H26.9376L32.0248 16.3299L37.2246 9.23371L44.2971 0.219971L32.6776 17.0756L38.6652 25.3695H37.4722L32.0248 17.8214L26.555 25.3695H25.3845L31.4171 17.0756L25.7897 9.23371ZM39.0929 10.0925V9.23371H51.4057V10.0925H45.7332V25.3695H44.7428V10.0925H39.0929ZM0.5 9.23371H1.73803L18.8098 34.78L11.7549 25.3695L1.53545 10.4541L1.49043 25.3695H0.5V9.23371ZM51.3059 24.2516C51.1036 24.2516 50.9518 24.0948 50.9518 23.8922C50.9518 23.6896 51.1036 23.5328 51.3059 23.5328C51.5107 23.5328 51.66 23.6896 51.66 23.8922C51.66 24.0948 51.5107 24.2516 51.3059 24.2516ZM52.2791 23.3061H52.8091C52.8163 23.5931 53.0259 23.7861 53.3342 23.7861C53.6787 23.7861 53.8738 23.5786 53.8738 23.1903V20.73H54.4134V23.1927C54.4134 23.8922 54.0087 24.295 53.3391 24.295C52.7103 24.295 52.2791 23.9043 52.2791 23.3061ZM55.1193 23.2747H55.6541C55.6998 23.6052 56.0226 23.815 56.4875 23.815C56.9212 23.815 57.2391 23.5907 57.2391 23.2819C57.2391 23.0166 57.0368 22.8574 56.5767 22.7489L56.1286 22.6403C55.4999 22.4932 55.2132 22.1893 55.2132 21.6779C55.2132 21.058 55.7191 20.6455 56.4779 20.6455C57.1837 20.6455 57.6992 21.058 57.7306 21.6441H57.2054C57.1548 21.3233 56.8754 21.1231 56.4707 21.1231C56.0443 21.1231 55.76 21.3282 55.76 21.6417C55.76 21.8902 55.9431 22.0325 56.396 22.1386L56.779 22.2327C57.4921 22.3991 57.786 22.6886 57.786 23.212C57.786 23.8777 57.2705 24.295 56.4466 24.295C55.6757 24.295 55.1578 23.897 55.1193 23.2747Z" fill="white"/>
</svg>
