<svg width="115" height="33" viewBox="0 0 115 33" fill="none" xmlns="http://www.w3.org/2000/svg">
<path fill-rule="evenodd" clip-rule="evenodd" d="M60.9447 0.504497C60.8607 0.504553 60.7782 0.526476 60.7053 0.568108C60.6328 0.610502 60.5727 0.671039 60.5307 0.743755C60.4888 0.816471 60.4665 0.898858 60.4661 0.982799V13.1824C60.4661 13.302 60.4105 13.4093 60.3068 13.4694C60.2559 13.499 60.1982 13.5146 60.1393 13.5146C60.0805 13.5146 60.0227 13.499 59.9719 13.4694L57.9784 12.3213C57.833 12.2372 57.668 12.1929 57.5 12.1929C57.332 12.1929 57.167 12.2372 57.0216 12.3213L49.064 16.9139C48.7666 17.0857 48.5857 17.4157 48.5857 17.7592V26.9447C48.5857 27.2878 48.7668 27.6021 49.064 27.7739L57.0216 32.3667C57.1669 32.4511 57.332 32.4955 57.5 32.4955C57.6681 32.4955 57.8331 32.4511 57.9784 32.3667L65.936 27.7739C66.0817 27.69 66.2027 27.5692 66.2867 27.4236C66.3707 27.278 66.4148 27.1128 66.4145 26.9447V4.04477C66.4143 3.87273 66.3684 3.70383 66.2816 3.55532C66.1948 3.40681 66.0701 3.284 65.9203 3.19943L61.1838 0.55215C61.1096 0.510703 61.0271 0.503389 60.9447 0.504497ZM9.75447 11.9704C9.60287 11.9764 9.46013 12.003 9.32404 12.0819L1.36624 16.6748C1.22047 16.7585 1.09945 16.8793 1.01545 17.0249C0.931445 17.1706 0.887456 17.3358 0.887943 17.5039L0.903902 29.8314C0.903902 30.0027 0.992336 30.1621 1.14305 30.2458C1.21531 30.2893 1.29802 30.3122 1.38231 30.3122C1.46661 30.3122 1.54932 30.2893 1.62157 30.2458L6.34186 27.5349C6.64086 27.3572 6.83612 27.0482 6.83612 26.7056V20.9487C6.83612 20.6051 7.01676 20.2899 7.31464 20.1193L9.32382 18.9552C9.46909 18.8708 9.6343 18.8267 9.80234 18.8276C9.96636 18.8276 10.1348 18.8686 10.2806 18.9552L12.29 20.1193C12.4359 20.2029 12.5571 20.3238 12.6411 20.4694C12.7252 20.6151 12.7692 20.7805 12.7686 20.9487V26.7053C12.7686 27.048 12.9658 27.3592 13.2628 27.5347L17.9831 30.2458C18.0554 30.2893 18.1381 30.3122 18.2224 30.3122C18.3067 30.3122 18.3894 30.2893 18.4616 30.2458C18.5344 30.2037 18.5948 30.1433 18.6368 30.0705C18.6788 29.9977 18.7009 29.9152 18.701 29.8311L18.7165 17.5039C18.7175 17.3357 18.6737 17.1703 18.5896 17.0246C18.5056 16.8789 18.3843 16.7582 18.2382 16.6748L10.2806 12.0819C10.1461 12.003 10.0029 11.9766 9.85022 11.9704H9.75447ZM81.2611 12.0819C81.0949 12.0819 80.932 12.124 80.7829 12.2096L72.8253 16.8024C72.6796 16.8862 72.5586 17.0071 72.4745 17.1527C72.3905 17.2983 72.3464 17.4635 72.3468 17.6316V26.817C72.3468 27.1626 72.5414 27.4755 72.841 27.6464L80.735 32.1435C81.0264 32.3098 81.3824 32.3224 81.6758 32.159L86.46 29.496C86.6118 29.4118 86.7144 29.2544 86.7151 29.0816C86.7159 28.9974 86.6941 28.9145 86.6521 28.8416C86.61 28.7686 86.5492 28.7083 86.4759 28.6669L78.4705 24.074C78.3206 23.9885 78.2154 23.8154 78.2154 23.6434V20.7731C78.2154 20.6013 78.3218 20.444 78.4705 20.3584L80.9582 18.9231C81.0309 18.881 81.1134 18.8588 81.1974 18.8588C81.2814 18.8588 81.364 18.881 81.4367 18.9231L83.9242 20.3584C83.997 20.4003 84.0576 20.4607 84.0996 20.5335C84.1416 20.6062 84.1637 20.6889 84.1635 20.7729V23.0374C84.1633 23.1214 84.1853 23.204 84.2273 23.2768C84.2693 23.3496 84.3298 23.41 84.4027 23.4519C84.5519 23.5381 84.7323 23.5383 84.881 23.4519L89.6494 20.6776C89.7948 20.5934 89.9156 20.4725 89.9996 20.3269C90.0836 20.1814 90.1278 20.0163 90.1279 19.8482V17.6318C90.1279 17.2894 89.9462 16.9744 89.6494 16.8024L81.7397 12.2096C81.5943 12.1255 81.4291 12.0813 81.2611 12.0819ZM57.468 18.9393C57.5097 18.9393 57.5584 18.9495 57.5957 18.971L60.3227 20.5497C60.3968 20.5925 60.4504 20.6716 60.4504 20.7569V23.9144C60.4504 24.0002 60.3972 24.0791 60.3227 24.1219L57.5957 25.7006C57.5592 25.7214 57.518 25.7324 57.4761 25.7324C57.4342 25.7324 57.3929 25.7214 57.3565 25.7006L54.6297 24.1219C54.5554 24.0789 54.502 24.0002 54.502 23.9144V20.7569C54.502 20.6714 54.5556 20.5929 54.6297 20.5497L57.3565 18.9712C57.39 18.9503 57.4287 18.9393 57.4682 18.9395L57.468 18.9393ZM104.321 12.05C104.558 11.9157 104.826 11.8587 105.102 11.8587L105.102 11.8589C105.378 11.8589 105.648 11.9159 105.884 12.0504L113.395 16.3879C113.881 16.6688 114.176 17.1967 114.176 17.7592V26.4188C114.176 26.9811 113.881 27.5075 113.395 27.79L105.884 32.1118C105.646 32.2492 105.376 32.3208 105.102 32.3191C104.828 32.3202 104.558 32.2487 104.321 32.1116L101.801 30.6288C101.427 30.4194 101.614 30.3527 101.737 30.3097C102.237 30.1363 102.337 30.1013 102.87 29.7994C102.899 29.7835 102.932 29.7752 102.965 29.7752C102.999 29.7752 103.032 29.7835 103.061 29.7994L104.991 30.9475C105.061 30.9859 105.149 30.9859 105.214 30.9475L112.725 26.626C112.795 26.5861 112.837 26.5014 112.837 26.4188V17.7595C112.837 17.6746 112.78 17.595 112.709 17.552L105.214 13.2305C105.18 13.2107 105.141 13.2002 105.102 13.2002C105.063 13.2002 105.024 13.2107 104.991 13.2305L97.4955 17.5518C97.4226 17.5935 97.3678 17.677 97.3678 17.759V26.4185C97.3678 26.5012 97.4233 26.5706 97.4955 26.6098L99.5368 27.8058C100.652 28.3632 101.339 27.6998 101.339 27.0405V18.4927C101.339 18.3719 101.441 18.2854 101.562 18.2854H102.503C102.621 18.2854 102.726 18.3719 102.726 18.4927V27.0405C102.726 28.5283 101.92 29.3845 100.509 29.3845L100.49 29.3845C100.065 29.3846 99.7099 29.3847 98.7713 28.9222L96.8098 27.7898C96.3237 27.509 96.0282 26.9808 96.0282 26.4185V17.7592C96.0282 17.1965 96.3237 16.6677 96.8098 16.3875L104.321 12.05ZM103.699 20.4704C103.699 18.9565 104.973 18.0463 107.111 18.0463C109.515 18.0463 110.708 18.8881 110.859 20.6776C110.865 20.7394 110.836 20.7911 110.795 20.837C110.754 20.8799 110.696 20.9167 110.636 20.9167H109.663C109.562 20.9167 109.476 20.8389 109.456 20.7414C109.222 19.7022 108.653 19.3697 107.111 19.3697C105.386 19.3697 105.198 19.9721 105.198 20.4225C105.198 20.9679 105.42 21.1189 107.749 21.4272C110.055 21.7319 111.162 22.167 111.162 23.7872C111.162 25.4218 109.791 26.3547 107.415 26.3547C104.131 26.3547 103.444 24.86 103.444 23.5959C103.444 23.4758 103.547 23.3725 103.667 23.3725H104.64C104.748 23.3725 104.83 23.4581 104.847 23.564C104.993 24.5514 105.429 25.047 107.415 25.047C108.994 25.047 109.663 24.6895 109.663 23.851C109.663 23.3676 109.472 23.007 107.016 22.7666C104.963 22.5635 103.699 22.1123 103.699 20.4704ZM33.1808 12.1617C33.3293 12.0761 33.4933 12.034 33.6591 12.034C33.8271 12.0336 33.9922 12.0777 34.1376 12.1617L42.0952 16.7386C42.3927 16.9099 42.5735 17.2402 42.5735 17.5837V26.7692C42.5739 26.9373 42.5298 27.1025 42.4458 27.2481C42.3618 27.3938 42.2409 27.5147 42.0952 27.5986L34.1376 32.1912C33.9923 32.2756 33.8273 32.3201 33.6592 32.3201C33.4912 32.3201 33.3261 32.2756 33.1808 32.1912L25.2232 27.5986C24.9258 27.4266 24.7447 27.1127 24.7447 26.7692V17.5837C24.7447 17.2406 24.9256 16.9099 25.2232 16.7386L33.1808 12.1617ZM81.1497 20.2469C81.1783 20.231 81.2135 20.231 81.2452 20.231L81.2498 20.231C81.2791 20.2309 81.298 20.2309 81.325 20.2467L82.8559 21.1399C82.8843 21.1559 82.9081 21.179 82.9249 21.2069C82.9417 21.2349 82.9509 21.2667 82.9516 21.2993V23.0536C82.9509 23.0862 82.9417 23.118 82.9249 23.146C82.9081 23.1739 82.8843 23.197 82.8559 23.2129L81.325 24.0902C81.2683 24.1234 81.2071 24.1234 81.1497 24.0902L79.6188 23.2132C79.5612 23.1801 79.5231 23.1196 79.5231 23.0536V21.2995C79.5236 21.2669 79.5328 21.2349 79.5496 21.2069C79.5664 21.1789 79.5903 21.1558 79.6188 21.1399L81.1497 20.2469Z" fill="white"/>
</svg>
