<svg width="37" height="33" viewBox="0 0 37 33" fill="none" xmlns="http://www.w3.org/2000/svg">
<path fill-rule="evenodd" clip-rule="evenodd" d="M28.2465 4.16932C28.0276 3.14611 27.6066 2.53211 27.0776 2.22671C26.5487 1.92131 25.8064 1.8637 24.8109 2.18577C23.8154 2.5078 22.6536 3.18552 21.3994 4.20487C20.9175 4.59653 20.4269 5.03459 19.932 5.5157C20.9656 6.63368 21.995 7.90827 22.9875 9.31094C24.6985 9.46915 26.3171 9.72334 27.8021 10.0595C27.9713 9.39035 28.1054 8.74645 28.2036 8.13331C28.4593 6.53745 28.4653 5.19241 28.2465 4.16932ZM16.2745 4.20495C16.7564 4.59658 17.247 5.03462 17.7418 5.5157C16.7082 6.63369 15.6789 7.90828 14.6863 9.31095C12.9753 9.46916 11.3568 9.72335 9.87177 10.0595C9.70257 9.39039 9.56851 8.74651 9.47028 8.13338C9.2146 6.53752 9.2086 5.19248 9.42743 4.16939C9.64629 3.14619 10.0673 2.53218 10.5963 2.22678C11.1252 1.92138 11.8675 1.86378 12.863 2.18584C13.8585 2.50788 15.0203 3.18559 16.2745 4.20495ZM17.2645 2.98686C17.7838 3.40892 18.3094 3.87829 18.8369 4.39117C19.3644 3.87826 19.8901 3.40887 20.4094 2.98679C21.7506 1.8967 23.0833 1.09489 24.3277 0.692322C25.572 0.289789 26.8148 0.262505 27.8625 0.867346C28.9101 1.47219 29.5079 2.56217 29.7814 3.84101C30.055 5.11996 30.0269 6.67502 29.7535 8.38162C29.6476 9.0424 29.5039 9.73228 29.3235 10.4456C30.0315 10.646 30.7008 10.8665 31.326 11.1052C32.9406 11.7217 34.3014 12.4749 35.2722 13.3513C36.2429 14.2276 36.888 15.2903 36.888 16.5C36.888 17.7097 36.2429 18.7724 35.2722 19.6487C34.3014 20.5251 32.9406 21.2783 31.326 21.8948C30.7008 22.1335 30.0315 22.354 29.3235 22.5544C29.5039 23.2677 29.6476 23.9576 29.7535 24.6184C30.0269 26.325 30.055 27.8801 29.7814 29.159C29.5079 30.4379 28.9101 31.5279 27.8625 32.1327C26.8148 32.7375 25.572 32.7103 24.3277 32.3077C23.0833 31.9052 21.7506 31.1034 20.4094 30.0133C19.8901 29.5912 19.3644 29.1218 18.8369 28.6089C18.3094 29.1218 17.7838 29.5911 17.2645 30.0132C15.9233 31.1033 14.5906 31.9051 13.3462 32.3077C12.1019 32.7102 10.8591 32.7375 9.81145 32.1326C8.76383 31.5278 8.16603 30.4378 7.8925 29.159C7.61894 27.88 7.64698 26.325 7.9204 24.6184C8.02626 23.9576 8.16996 23.2677 8.35037 22.5544C7.64244 22.354 6.97315 22.1335 6.34798 21.8948C4.7333 21.2783 3.37257 20.5251 2.40174 19.6487C1.431 18.7724 0.78595 17.7097 0.78595 16.5C0.78595 15.2903 1.431 14.2276 2.40174 13.3513C3.37257 12.4749 4.7333 11.7217 6.34798 11.1052C6.97315 10.8665 7.64243 10.646 8.35036 10.4456C8.16995 9.73231 8.02626 9.04245 7.92039 8.3817C7.64697 6.67509 7.61894 5.12003 7.8925 3.84108C8.16603 2.56224 8.76383 1.47226 9.81144 0.867421C10.8591 0.262579 12.1019 0.289863 13.3462 0.692396C14.5906 1.09496 15.9233 1.89677 17.2645 2.98686ZM24.1335 11.0143C25.2744 11.1574 26.359 11.3453 27.3729 11.5718C27.0621 12.563 26.6825 13.5963 26.236 14.6559C25.9182 14.0426 25.5813 13.4269 25.2259 12.8114C24.8705 12.1958 24.5058 11.5962 24.1335 11.0143ZM28.8972 11.9562C28.4458 13.4103 27.8566 14.9391 27.1381 16.5C27.8566 18.0609 28.4458 19.5897 28.8972 21.0438C29.5613 20.8558 30.1859 20.6499 30.7661 20.4284C32.276 19.8519 33.4438 19.1846 34.2204 18.4835C34.9971 17.7824 35.3183 17.1108 35.3183 16.5C35.3183 15.8892 34.9971 15.2176 34.2204 14.5165C33.4438 13.8154 32.276 13.1481 30.7661 12.5716C30.1859 12.3501 29.5613 12.1442 28.8972 11.9562ZM23.8666 13.5962C24.4292 14.5707 24.9418 15.5422 25.4032 16.5C24.9418 17.4579 24.4292 18.4294 23.8666 19.4038C23.304 20.3783 22.7189 21.3081 22.1201 22.1865C21.0599 22.2659 19.9622 22.3077 18.837 22.3077C17.7117 22.3077 16.614 22.2659 15.5538 22.1865C14.9549 21.3081 14.3699 20.3784 13.8073 19.4039C13.2447 18.4294 12.732 17.4579 12.2707 16.5C12.732 15.5422 13.2447 14.5706 13.8073 13.5961C14.3699 12.6217 14.955 11.6919 15.5538 10.8135C16.614 10.7341 17.7117 10.6923 18.837 10.6923C19.9622 10.6923 21.0598 10.7341 22.12 10.8135C22.7189 11.6919 23.304 12.6217 23.8666 13.5962ZM25.2259 20.1887C24.8706 20.8042 24.5058 21.4038 24.1335 21.9857C25.2744 21.8426 26.359 21.6547 27.3728 21.4282C27.0621 20.437 26.6825 19.4038 26.236 18.3441C25.9182 18.9575 25.5813 19.5732 25.2259 20.1887ZM18.837 23.8774C19.5477 23.8774 20.2493 23.8612 20.9394 23.8298C20.245 24.7463 19.54 25.5917 18.8369 26.3564C18.1339 25.5917 17.4289 24.7463 16.7344 23.8298C17.4245 23.8612 18.1262 23.8774 18.837 23.8774ZM22.9875 23.6891C21.995 25.0918 20.9656 26.3664 19.932 27.4844C20.4269 27.9655 20.9175 28.4035 21.3994 28.7952C22.6536 29.8145 23.8154 30.4922 24.8109 30.8143C25.8064 31.1363 26.5487 31.0787 27.0776 30.7733C27.6066 30.4679 28.0276 29.8539 28.2465 28.8307C28.4653 27.8076 28.4593 26.4626 28.2036 24.8667C28.1054 24.2536 27.9713 23.6097 27.8021 22.9405C26.3171 23.2767 24.6986 23.5309 22.9875 23.6891ZM14.6863 23.689C15.6788 25.0917 16.7082 26.3663 17.7418 27.4844C17.247 27.9654 16.7564 28.4035 16.2745 28.7951C15.0203 29.8145 13.8585 30.4922 12.863 30.8142C11.8675 31.1363 11.1252 31.0787 10.5963 30.7733C10.0673 30.4679 9.64629 29.8539 9.42744 28.8307C9.20861 27.8076 9.21461 26.4625 9.47029 24.8667C9.56852 24.2535 9.70258 23.6096 9.87179 22.9405C11.3568 23.2766 12.9753 23.5308 14.6863 23.689ZM13.5404 21.9857C12.3994 21.8426 11.3148 21.6547 10.301 21.4282C10.6118 20.437 10.9914 19.4038 11.4379 18.3441C11.7557 18.9575 12.0926 19.5732 12.448 20.1887C12.8033 20.8043 13.1681 21.4038 13.5404 21.9857ZM12.448 12.8113C12.0926 13.4268 11.7557 14.0426 11.4379 14.6559C10.9914 13.5963 10.6118 12.563 10.301 11.5718C11.3148 11.3453 12.3994 11.1574 13.5404 11.0143C13.1681 11.5962 12.8033 12.1958 12.448 12.8113ZM8.7767 21.0438C9.22812 19.5897 9.81724 18.0609 10.5357 16.5C9.81723 14.9391 9.2281 13.4103 8.77669 11.9562C8.11263 12.1442 7.48798 12.3501 6.90787 12.5716C5.39798 13.1481 4.23014 13.8154 3.45354 14.5165C2.67684 15.2176 2.3556 15.8892 2.3556 16.5C2.3556 17.1108 2.67684 17.7824 3.45354 18.4835C4.23014 19.1846 5.39798 19.8519 6.90787 20.4284C7.48798 20.6499 8.11264 20.8558 8.7767 21.0438ZM18.837 9.12263C18.1262 9.12263 17.4246 9.13876 16.7344 9.17019C17.4289 8.25369 18.1339 7.40834 18.8369 6.6436C19.54 7.40834 20.245 8.25368 20.9394 9.17019C20.2493 9.13876 19.5477 9.12263 18.837 9.12263ZM22.0551 16.5C22.0551 18.2771 20.6144 19.7178 18.8373 19.7178C17.0602 19.7178 15.6195 18.2771 15.6195 16.5C15.6195 14.7229 17.0602 13.2822 18.8373 13.2822C20.6144 13.2822 22.0551 14.7229 22.0551 16.5Z" fill="white"/>
</svg>
