<svg width="32" height="32" viewBox="0 0 32 32" fill="none" xmlns="http://www.w3.org/2000/svg">
<path d="M26.1013 26.1039C26.9778 25.2249 26.9764 23.8021 26.0982 22.9248C25.2201 22.0475 23.7972 22.0475 22.9191 22.9248C22.041 23.8021 22.0396 25.2249 22.916 26.1039C23.3368 26.5293 23.9103 26.7686 24.5087 26.7686C25.107 26.7686 25.6805 26.5293 26.1013 26.1039" stroke="white" stroke-width="1.5" stroke-linecap="round" stroke-linejoin="round"/>
<path d="M22.7507 6.09599C20.1551 4.30814 16.9554 3.62513 13.856 4.19733" stroke="white" stroke-width="1.5" stroke-linecap="round" stroke-linejoin="round"/>
<path d="M24.5067 5.23731C23.2667 5.24025 22.2636 6.24715 22.2653 7.48708C22.267 8.72701 23.2729 9.73112 24.5129 9.73064C25.7528 9.73015 26.7579 8.72524 26.7587 7.48531C26.7588 6.88836 26.5215 6.31588 26.099 5.89414C25.6765 5.47241 25.1036 5.23609 24.5067 5.23731" stroke="white" stroke-width="1.5" stroke-linecap="round" stroke-linejoin="round"/>
<path d="M6.09999 9.2373C4.30942 11.8252 3.62463 15.0202 4.19732 18.1146" stroke="white" stroke-width="1.5" stroke-linecap="round" stroke-linejoin="round"/>
<path d="M5.23999 7.48666C5.23864 8.39748 5.78624 9.21938 6.62731 9.56893C7.46839 9.91848 8.43722 9.72681 9.08184 9.08334C9.72646 8.43986 9.91985 7.47137 9.57179 6.62968C9.22374 5.78798 8.40281 5.23893 7.49199 5.23866C6.89491 5.23698 6.32174 5.47316 5.89916 5.89499C5.47658 6.31682 5.23938 6.88957 5.23999 7.48666" stroke="white" stroke-width="1.5" stroke-linecap="round" stroke-linejoin="round"/>
<path d="M25.9 22.7639C27.6906 20.1765 28.3754 16.9819 27.8027 13.8879" stroke="white" stroke-width="1.5" stroke-linecap="round" stroke-linejoin="round"/>
<path d="M26.76 24.516C26.7613 23.6051 26.2138 22.7832 25.3727 22.4337C24.5316 22.0841 23.5628 22.2758 22.9181 22.9193C22.2735 23.5628 22.0801 24.5312 22.4282 25.3729C22.7762 26.2146 23.5972 26.7637 24.508 26.764C25.1051 26.7656 25.6783 26.5295 26.1008 26.1076C26.5234 25.6858 26.7606 25.1131 26.76 24.516" stroke="white" stroke-width="1.5" stroke-linecap="round" stroke-linejoin="round"/>
<path d="M9.24933 25.9041C11.8449 27.6919 15.0446 28.3749 18.144 27.8027" stroke="white" stroke-width="1.5" stroke-linecap="round" stroke-linejoin="round"/>
<path d="M7.49333 26.7626C8.73326 26.7597 9.73638 25.7528 9.73466 24.5128C9.73295 23.2729 8.72705 22.2688 7.48711 22.2693C6.24718 22.2698 5.24207 23.2747 5.24133 24.5146C5.24118 25.1116 5.47852 25.684 5.901 26.1058C6.32348 26.5275 6.89639 26.7638 7.49333 26.7626" stroke="white" stroke-width="1.5" stroke-linecap="round" stroke-linejoin="round"/>
<rect x="11.9996" y="11.9995" width="8" height="8" rx="1.40007" stroke="white" stroke-width="1.5" stroke-linecap="round" stroke-linejoin="round"/>
<path d="M14 10.6666V12" stroke="white" stroke-width="1.5" stroke-linecap="round" stroke-linejoin="round"/>
<path d="M18 10.6666V12" stroke="white" stroke-width="1.5" stroke-linecap="round" stroke-linejoin="round"/>
<path d="M14 20V21.3333" stroke="white" stroke-width="1.5" stroke-linecap="round" stroke-linejoin="round"/>
<path d="M18 20V21.3333" stroke="white" stroke-width="1.5" stroke-linecap="round" stroke-linejoin="round"/>
<path d="M10.6667 17.9999H12" stroke="white" stroke-width="1.5" stroke-linecap="round" stroke-linejoin="round"/>
<path d="M10.6667 14H12" stroke="white" stroke-width="1.5" stroke-linecap="round" stroke-linejoin="round"/>
<path d="M20 17.9999H21.3333" stroke="white" stroke-width="1.5" stroke-linecap="round" stroke-linejoin="round"/>
<path d="M20 14H21.3333" stroke="white" stroke-width="1.5" stroke-linecap="round" stroke-linejoin="round"/>
</svg>
