<svg width="162" height="25" viewBox="0 0 162 25" fill="none" xmlns="http://www.w3.org/2000/svg">
<path fill-rule="evenodd" clip-rule="evenodd" d="M12.3051 0.772827L10.5733 5.83999H0.887939V0.772827H12.3051ZM30.6923 0.772827V5.83999H16.0894L17.7357 0.772827H30.6923ZM9.14079 9.64571L7.62278 14.7129H0.887939V9.64571H9.14079ZM30.7137 9.64571V14.7129H12.9465L14.4859 9.64571H30.7137ZM5.9551 19.16L4.45847 24.2272H0.887939V19.16H5.9551ZM30.6923 19.16V24.2272H9.76082L11.4285 19.16H30.6923ZM55.1515 16.1882C55.2156 17.4924 54.6811 18.3476 54.2321 18.7752C53.0776 19.9726 51.2389 20.0367 49.9774 19.9298C48.3311 19.8657 46.7062 19.4594 45.2096 18.7752L46.1931 16.7227C47.369 17.3 48.6305 17.6635 49.9347 17.7917C52.9066 18.0269 52.9279 16.7441 52.9065 16.2737C52.8638 15.6323 52.2865 15.4185 50.1912 15.162C48.3525 14.9695 45.5089 14.6488 45.4662 11.6769C45.402 9.21819 47.6683 8.08503 50.1271 8.14917C51.6451 8.21331 53.1631 8.4485 54.6384 8.87611L53.9114 11.1424C52.65 10.7148 51.3672 10.4583 50.0416 10.3941C48.9726 10.3514 47.7752 10.779 47.7752 11.6556C47.7966 12.3184 48.1601 12.5749 50.4478 12.8315L50.5169 12.8404C52.3342 13.0751 55.0248 13.4227 55.1515 16.1882ZM67.2101 19.0532C67.2101 19.0532 65.0079 19.9726 62.7629 19.9726C57.5461 19.9726 56.9475 15.5682 56.9475 14.0288V13.9433C56.9688 12.2756 57.8882 8.14917 62.656 8.14917C67.7873 8.14917 67.8301 13.1522 67.8301 13.5798V14.9268H59.3848C59.3848 16.3379 60.5394 17.7917 62.8485 17.7917C64.6444 17.7917 66.6114 17.0221 66.6114 17.0221L67.2101 19.0532ZM59.4276 12.917H65.5424C65.5424 12.917 65.6921 10.4155 62.6774 10.4369C59.7055 10.4369 59.4276 12.917 59.4276 12.917ZM73.0683 12.6177V19.7801L70.524 19.7588V8.34159H72.7476L72.8759 10.5652C73.0469 9.26095 74.1587 8.32021 75.4629 8.34159H79.0976V10.7362H75.1208C74.0946 10.7362 73.0683 11.8266 73.0683 12.6177ZM91.7121 8.36297L88.0774 19.7801H84.4213L80.9577 8.36297H83.5447L86.2387 17.5566L89.2533 8.36297H91.7121ZM103.322 19.0532C103.322 19.0532 101.119 19.9726 98.8745 19.9726C93.6577 19.9726 93.059 15.5682 93.059 14.0288V13.9433C93.0804 12.2756 93.9998 8.14917 98.7676 8.14917C103.899 8.14917 103.942 13.1522 103.942 13.5798V14.9268H95.4964C95.4964 16.3379 96.6509 17.7917 98.96 17.7917C100.756 17.7917 102.723 17.0221 102.723 17.0221L103.322 19.0532ZM95.5392 12.917H101.654C101.654 12.917 101.804 10.4155 98.789 10.4369C95.8171 10.4369 95.5392 12.917 95.5392 12.917ZM109.18 12.6391V19.7801H106.614V8.36297H108.859L108.987 10.5865C109.158 9.28233 110.27 8.34159 111.574 8.36297H115.209V10.7576H111.232C110.206 10.7576 109.18 11.848 109.18 12.6391ZM126.028 17.3855V19.7588H118.887V5.88284H115.231V3.78756H121.324V17.3855H126.028ZM137.851 19.0532C137.851 19.0532 135.649 19.9726 133.404 19.9726C128.166 19.9726 127.567 15.5682 127.588 14.0288V13.9433C127.61 12.2756 128.529 8.14917 133.297 8.14917C138.428 8.14917 138.471 13.1522 138.471 13.5798V14.9268H130.026C130.026 16.3379 131.18 17.7917 133.489 17.7917C135.285 17.7917 137.252 17.0221 137.252 17.0221L137.851 19.0532ZM130.047 12.917H136.162C136.162 12.917 136.312 10.4155 133.297 10.4369C130.325 10.4369 130.047 12.917 130.047 12.917ZM150.166 16.1882C150.23 17.4924 149.696 18.3476 149.247 18.7752C148.071 19.9726 146.254 20.0367 144.971 19.9298C143.324 19.8657 141.7 19.4594 140.203 18.7752L141.186 16.7227C142.362 17.3 143.624 17.6635 144.928 17.7917C147.9 18.0269 147.921 16.7441 147.9 16.2737C147.857 15.6323 147.28 15.4185 145.185 15.162C143.346 14.9695 140.502 14.6488 140.459 11.6769C140.395 9.21819 142.662 8.08503 145.12 8.14917C146.638 8.21331 148.156 8.4485 149.632 8.87611L148.905 11.1424C147.665 10.7148 146.36 10.4583 145.056 10.3941C143.966 10.3514 142.79 10.779 142.79 11.6556C142.811 12.3184 143.175 12.5749 145.462 12.8315L145.532 12.8404C147.349 13.0751 150.04 13.4227 150.166 16.1882ZM161.883 16.1882C161.947 17.4924 161.412 18.3476 160.963 18.7752C159.809 19.9726 157.97 20.0367 156.687 19.9298C155.041 19.8657 153.416 19.4594 151.919 18.7752L152.903 16.7227C154.079 17.3 155.34 17.6635 156.644 17.7917C159.616 18.0269 159.638 16.7441 159.616 16.2737C159.574 15.6323 158.996 15.4185 156.901 15.162C155.062 14.9695 152.219 14.6488 152.176 11.6769C152.112 9.21819 154.378 8.08503 156.837 8.14917C158.376 8.21331 159.894 8.4485 161.37 8.87611L160.643 11.1424C159.381 10.7148 158.098 10.4583 156.773 10.3941C155.682 10.3514 154.506 10.779 154.506 11.6556C154.528 12.3184 154.891 12.5749 157.179 12.8315L157.248 12.8404C159.065 13.0751 161.756 13.4227 161.883 16.1882Z" fill="white"/>
</svg>
