<svg width="36" height="35" viewBox="0 0 36 35" fill="none" xmlns="http://www.w3.org/2000/svg">
<path fill-rule="evenodd" clip-rule="evenodd" d="M0.5 35V0H35.5V35H0.5ZM28.7415 16.1476C29.6304 16.3698 30.3082 16.7643 30.9304 17.4087C31.2526 17.7532 31.7304 18.381 31.7693 18.531C31.7804 18.5754 30.2582 19.5976 29.3359 20.1698C29.3026 20.1921 29.1693 20.0476 29.0193 19.8254C28.5693 19.1698 28.0971 18.8865 27.3748 18.8365C26.3137 18.7643 25.6304 19.3198 25.6359 20.2476C25.6359 20.5198 25.6748 20.681 25.7859 20.9032C26.0193 21.3865 26.4526 21.6754 27.8137 22.2643C30.3193 23.3421 31.3915 24.0532 32.0582 25.0643C32.8026 26.1921 32.9693 27.9921 32.4637 29.331C31.9082 30.7865 30.5304 31.7754 28.5915 32.1032C27.9915 32.2087 26.5693 32.1921 25.9248 32.0754C24.5193 31.8254 23.1859 31.131 22.3637 30.2198C22.0415 29.8643 21.4137 28.9365 21.4526 28.8698C21.4693 28.8476 21.6137 28.7587 21.7748 28.6643C21.9304 28.5754 22.5193 28.2365 23.0748 27.9143L24.0804 27.331L24.2915 27.6421C24.5859 28.0921 25.2304 28.7087 25.6193 28.9143C26.7359 29.5032 28.2693 29.4198 29.0248 28.7421C29.3471 28.4476 29.4804 28.1421 29.4804 27.6921C29.4804 27.2865 29.4304 27.1087 29.2193 26.8032C28.9471 26.4143 28.3915 26.0865 26.8137 25.4032C25.0082 24.6254 24.2304 24.1421 23.5193 23.3754C23.1082 22.931 22.7193 22.2198 22.5582 21.6254C22.4248 21.131 22.3915 19.8921 22.4971 19.3921C22.8693 17.6476 24.1859 16.431 26.0859 16.0698C26.7026 15.9532 28.1359 15.9976 28.7415 16.1476ZM8.23982 17.6161L8.22871 19.0494H12.7843V31.9939H16.0065V19.0494H20.562V17.6439C20.562 16.8661 20.5454 16.2161 20.5232 16.1994C20.5065 16.1772 17.7343 16.1661 14.3732 16.1716L8.25649 16.1883L8.23982 17.6161Z" fill="white"/>
</svg>
